<?xml version="1.0" ?><svg id="Layer_1_1_" style="enable-background:new 0 0 64 64;" version="1.1" viewBox="0 0 64 64" xml:space="preserve" xmlns="http://www.w3.org/2000/svg" xmlns:xlink="http://www.w3.org/1999/xlink"><g><g><path d="M21.286,32.383c-0.261-0.518-0.488-1.056-0.673-1.614L16,30v-6l4.613-0.769    c0.185-0.558,0.412-1.096,0.673-1.614l-2.721-3.809l4.243-4.243l3.809,2.721c0.518-0.261,1.056-0.488,1.614-0.673L29,11h6    l0.769,4.613c0.558,0.185,1.096,0.412,1.614,0.673l3.809-2.721l4.243,4.243l-2.721,3.809c0.261,0.518,0.488,1.056,0.673,1.614    L48,24v6l-4.613,0.769c-0.185,0.558-0.412,1.096-0.673,1.614l2.721,3.809l-4.243,4.243l-3.809-2.721    c-0.518,0.261-1.056,0.489-1.614,0.673L35,43h-6l-0.769-4.613c-0.558-0.185-1.096-0.412-1.614-0.673l-3.809,2.721l-4.243-4.243    L21.286,32.383z" style="fill:#FFCB57;"/></g><g><path d="M32,63c-1.654,0-3-1.346-3-3s1.346-3,3-3s3,1.346,3,3S33.654,63,32,63z M32,59    c-0.552,0-1,0.449-1,1s0.448,1,1,1s1-0.449,1-1S32.552,59,32,59z" style="fill:#E56565;"/></g><g><path d="M60,63c-1.654,0-3-1.346-3-3s1.346-3,3-3s3,1.346,3,3S61.654,63,60,63z M60,59    c-0.552,0-1,0.449-1,1s0.448,1,1,1s1-0.449,1-1S60.552,59,60,59z" style="fill:#E56565;"/></g><g><path d="M4,63c-1.654,0-3-1.346-3-3s1.346-3,3-3s3,1.346,3,3S5.654,63,4,63z M4,59c-0.552,0-1,0.449-1,1    s0.448,1,1,1s1-0.449,1-1S4.552,59,4,59z" style="fill:#E56565;"/></g><g><path d="M4,53c-1.654,0-3-1.346-3-3s1.346-3,3-3s3,1.346,3,3S5.654,53,4,53z M4,49c-0.552,0-1,0.449-1,1    s0.448,1,1,1s1-0.449,1-1S4.552,49,4,49z" style="fill:#E56565;"/></g><g><rect height="9" style="fill:#E56565;" width="2" x="31" y="46"/></g><g><path d="M15,61H9v-2h6c2.757,0,5-2.243,5-5V42h2v12C22,57.86,18.859,61,15,61z" style="fill:#E56565;"/></g><g><path d="M13,51H9v-2h4c0.552,0,1-0.449,1-1V33h2v15C16,49.654,14.654,51,13,51z" style="fill:#E56565;"/></g><g><path d="M60,53c-1.654,0-3-1.346-3-3s1.346-3,3-3s3,1.346,3,3S61.654,53,60,53z M60,49    c-0.552,0-1,0.449-1,1s0.448,1,1,1s1-0.449,1-1S60.552,49,60,49z" style="fill:#E56565;"/></g><g><path d="M55,61h-6c-3.859,0-7-3.14-7-7V42h2v12c0,2.757,2.243,5,5,5h6V61z" style="fill:#E56565;"/></g><g><path d="M55,51h-4c-1.654,0-3-1.346-3-3V33h2v15c0,0.551,0.448,1,1,1h4V51z" style="fill:#E56565;"/></g><g><path d="M32,18c-4.963,0-9,4.038-9,9s4.037,9,9,9s9-4.038,9-9S36.963,18,32,18z M31,27c0-0.551,0.448-1,1-1    s1,0.449,1,1s-0.448,1-1,1S31,27.551,31,27z M33,33.92v-4.104c1.161-0.414,2-1.514,2-2.816c0-1.654-1.346-3-3-3s-3,1.346-3,3    c0,1.302,0.839,2.402,2,2.816v4.104c-3.386-0.488-6-3.401-6-6.92c0-3.86,3.141-7,7-7s7,3.14,7,7C39,30.519,36.386,33.432,33,33.92    z" style="fill:#3F3A34;"/><path d="M43.607,21.167l-1.787,0.899c0.248,0.491,0.455,0.989,0.617,1.478l0.189,0.573L47,24.847v4.306    l-4.373,0.729l-0.189,0.573c-0.161,0.488-0.369,0.986-0.617,1.479l-0.271,0.539l2.58,3.612l-3.045,3.044l-3.611-2.58l-0.54,0.272    c-0.491,0.248-0.989,0.456-1.478,0.617l-0.573,0.189L34.152,42h-4.305l-0.729-4.373l-0.573-0.189    c-0.488-0.161-0.986-0.369-1.478-0.617l-0.54-0.272l-3.611,2.58l-3.645-3.644l-1.414,1.414l4.842,4.842l4.021-2.872    c0.207,0.093,0.414,0.18,0.622,0.26L28.152,44h7.694l0.812-4.87c0.208-0.081,0.415-0.167,0.622-0.26l4.021,2.872L46.74,36.3    l-2.871-4.02c0.093-0.207,0.18-0.415,0.26-0.622L49,30.847v-7.694l-4.871-0.812C43.978,21.949,43.803,21.556,43.607,21.167z" style="fill:#3F3A34;"/><path d="M15,23.153v7.694l4.871,0.812c0.151,0.392,0.326,0.784,0.521,1.173l1.787-0.898    c-0.248-0.493-0.456-0.991-0.617-1.479l-0.189-0.573L17,29.153v-4.306l4.373-0.729l0.189-0.573    c0.162-0.489,0.369-0.987,0.617-1.478l0.271-0.54l-2.58-3.612l3.045-3.044l3.611,2.58l0.54-0.272    c0.491-0.248,0.989-0.456,1.478-0.617l0.573-0.189L29.848,12h4.305l0.729,4.373l0.573,0.189c0.488,0.161,0.986,0.369,1.478,0.617    l0.54,0.272l3.611-2.58l3.644,3.644l1.414-1.414l-4.841-4.842L37.28,15.13c-0.207-0.093-0.414-0.18-0.622-0.26L35.847,10h-7.694    l-0.811,4.87c-0.208,0.081-0.415,0.167-0.622,0.26l-4.021-2.872L17.258,17.7l2.872,4.02c-0.092,0.207-0.179,0.414-0.259,0.621    L15,23.153z" style="fill:#3F3A34;"/><rect height="2" style="fill:#3F3A34;" width="2" x="31" y="14"/><rect height="2" style="fill:#3F3A34;" transform="matrix(0.7071 -0.7071 0.7071 0.7071 -6.2046 22.0502)" width="2" x="22.515" y="17.515"/><rect height="2" style="fill:#3F3A34;" width="2" x="19" y="26"/><rect height="2" style="fill:#3F3A34;" transform="matrix(0.7071 -0.7071 0.7071 0.7071 -18.2047 27.0208)" width="2" x="22.515" y="34.485"/><rect height="2" style="fill:#3F3A34;" width="2" x="31" y="38"/><rect height="2" style="fill:#3F3A34;" transform="matrix(0.7071 -0.7071 0.7071 0.7071 -13.234 39.0209)" width="2" x="39.485" y="34.485"/><rect height="2" style="fill:#3F3A34;" width="2" x="43" y="26"/><rect height="2" style="fill:#3F3A34;" transform="matrix(0.7071 -0.7071 0.7071 0.7071 -1.2339 34.0503)" width="2" x="39.485" y="17.515"/><path d="M55,15c-0.354,0-0.702,0.031-1.047,0.076C53.489,10.546,49.651,7,45,7    c-1.02,0-2.02,0.18-2.963,0.51C40.284,3.572,36.399,1,32,1c-4.4,0-8.284,2.571-10.037,6.509C21.018,7.179,20.019,7,19,7    c-4.648,0-8.483,3.542-8.951,8.067C9.704,15.023,9.354,15,9,15c-4.411,0-8,3.589-8,8s3.589,8,8,8h4v-2H9c-3.309,0-6-2.691-6-6    s2.691-6,6-6c2.125,0,4.049,1.089,5.146,2.913l1.713-1.031c-0.915-1.522-2.263-2.659-3.838-3.297C12.238,11.918,15.281,9,19,9    c1.707,0,3.351,0.621,4.627,1.748l1.324-1.5c-0.371-0.328-0.77-0.617-1.184-0.876C25.19,5.124,28.382,3,32,3    c3.62,0,6.813,2.127,8.235,5.377c-0.731,0.457-1.405,1.012-1.986,1.671l1.5,1.323C41.078,9.864,42.992,9,45,9    c3.721,0,6.764,2.921,6.979,6.589c-0.95,0.387-1.824,0.959-2.578,1.696l1.4,1.429C51.93,17.609,53.421,17,55,17    c3.309,0,6,2.691,6,6s-2.691,6-6,6h-4v2h4c4.411,0,8-3.589,8-8S59.411,15,55,15z" style="fill:#3F3A34;"/></g></g></svg>